# xmcd
#
# Track frame offsets:
#	150
#	21579
#	39547
#	51997
#	72430
#	95623
#	111410
#	136688
#	157582
#	186364
#	222948
#	237975
#	255305
#	272184
#	299390
#	324146
#
# Disc length: 4743 seconds
#
# Revision: 0
# Processed by: cddbd v1.5.2PL0 Copyright (c) Steve Scherf et al.
# Submitted via: EasyCDDAExtractor 8.0.1.1
#
DISCID=eb128510
DTITLE=Сергей Наговицын - Лучшие песни (Золото русского шансона)
DYEAR=1900
DGENRE=Шансон
TTITLE0=Дзынь-Дзара
TTITLE1=Городские встречи
TTITLE2=Кабачок
TTITLE3=Кабакам-кабачный дым
TTITLE4=Без проституток и воров
TTITLE5=Дори-Дори
TTITLE6=Зона
TTITLE7=Говорила мне мать...
TTITLE8=На суде
TTITLE9=Приговор
TTITLE10=Золотистые Денёчки
TTITLE11=Море черное
TTITLE12=Вечер Для Звёзд
TTITLE13=Разбитая судьба
TTITLE14=Белый Снег
TTITLE15=До свиданья, кореша
EXTD=
EXTT0=
EXTT1=
EXTT2=
EXTT3=
EXTT4=
EXTT5=
EXTT6=
EXTT7=
EXTT8=
EXTT9=
EXTT10=
EXTT11=
EXTT12=
EXTT13=
EXTT14=
EXTT15=
PLAYORDER=
